<?xml version="1.0" encoding="UTF-8"?>
<svg version="1.1" xmlns="http://www.w3.org/2000/svg" width="242" height="229">
<path d="M0 0 C79.86 0 159.72 0 242 0 C242 75.57 242 151.14 242 229 C162.14 229 82.28 229 0 229 C0 153.43 0 77.86 0 0 Z " fill="#2296F3" transform="translate(0,0)"/>
<path d="M0 0 C79.86 0 159.72 0 242 0 C242 75.57 242 151.14 242 229 C162.14 229 82.28 229 0 229 C0 153.43 0 77.86 0 0 Z M67 40 C66.22527344 40.60070312 65.45054688 41.20140625 64.65234375 41.8203125 C47.91377742 55.45914432 37.09248027 77.8680515 34 99 C31.73084534 123.747968 37.40705574 149.50684243 53 169.25 C54.32956559 170.83649853 55.66256102 172.42013318 57 174 C57.45761719 174.60328125 57.91523437 175.2065625 58.38671875 175.828125 C69.90591017 190.63357223 89.1527035 199.85496002 107 204 C108.85431641 204.53367188 108.85431641 204.53367188 110.74609375 205.078125 C115.65062482 206.29913852 120.46675514 206.34335717 125.5 206.3125 C126.46760254 206.30686035 127.43520508 206.3012207 128.43212891 206.29541016 C151.53286888 205.90931472 172.39511743 197.90344369 190 183 C190.60328125 182.54238281 191.2065625 182.08476562 191.828125 181.61328125 C208.38520272 168.73125583 219.1590169 145.14425222 221.7109375 124.75390625 C223.84786654 97.00270618 218.03638068 72.66344078 200 51 C199.44957031 50.28714844 198.89914063 49.57429688 198.33203125 48.83984375 C184.83452742 32.07627727 161.84216547 20.9283293 140.75390625 18.2890625 C113.0334335 16.15449956 88.62372022 21.94274775 67 40 Z " fill="#FEFEFE" transform="translate(0,0)"/>
<path d="M0 0 C8.91 0 17.82 0 27 0 C27 4.29 27 8.58 27 13 C25.35 13.99 23.7 14.98 22 16 C18.03591122 20.53038718 17.88344274 24.29525823 17.9375 30.1875 C17.94652344 31.45980469 17.95554688 32.73210937 17.96484375 34.04296875 C17.97644531 35.01878906 17.98804688 35.99460938 18 37 C20.64 36.67 23.28 36.34 26 36 C26 34.68 26 33.36 26 32 C25.34 31.67 24.68 31.34 24 31 C23.51627907 23.74418605 23.51627907 23.74418605 25.625 20.5 C28.72140596 18.54437518 30.39853135 18.39975523 34 19 C36.375 20.5 36.375 20.5 38 23 C38.51126196 25.90672532 38.33967947 27.9914104 38 31 C37.01 31.66 36.02 32.32 35 33 C35.33 33.99 35.66 34.98 36 36 C38.31 36 40.62 36 43 36 C43.10883596 33.62374823 43.18766696 31.25256024 43.25 28.875 C43.28351563 28.20984375 43.31703125 27.5446875 43.3515625 26.859375 C43.45223141 21.72526074 42.36210932 18.8538464 39 15 C37.35 14.34 35.7 13.68 34 13 C34 9.37 34 5.74 34 2 C41.62402944 2.85451276 47.75751591 7.16414772 52.8125 12.875 C57.91257983 20.16082833 61.11647552 26.08297896 61.25 35.0625 C61.27578125 36.10535156 61.3015625 37.14820313 61.328125 38.22265625 C61 41 61 41 60.00842285 42.64932251 C56.78415249 44.8176654 53.2931613 44.4161117 49.53710938 44.38818359 C48.67342239 44.39344055 47.80973541 44.39869751 46.9198761 44.40411377 C44.06098419 44.41733258 41.20264771 44.40856906 38.34375 44.3984375 C36.3598215 44.40045769 34.37589373 44.40336868 32.39196777 44.40713501 C28.23243139 44.41156091 24.07308817 44.40511871 19.91357422 44.39111328 C14.57670467 44.3740213 9.24028769 44.38386105 3.90343475 44.40183067 C-0.19374005 44.41266129 -4.29080722 44.40922548 -8.38798523 44.4014473 C-10.35601352 44.39944329 -12.32405153 44.40191156 -14.29206848 44.40888596 C-17.04067951 44.41648853 -19.78855338 44.40491308 -22.53710938 44.38818359 C-23.76218452 44.39729263 -23.76218452 44.39729263 -25.01200867 44.40658569 C-30.49925388 44.34458167 -30.49925388 44.34458167 -33.00183105 42.62246704 C-35.30235383 38.88309767 -34.48920617 34.18848426 -34 30 C-31.25870288 19.43748794 -24.5847989 11.47715366 -16 5 C-10.87096774 2 -10.87096774 2 -7 2 C-6.65788971 6.38408 -6.45286734 10.62835587 -7 15 C-9.9375 17.6875 -9.9375 17.6875 -13 19 C-14.72869779 22.45739557 -14.48966895 26.21975568 -14 30 C-12.20606332 32.87029869 -11.01736724 34.49131638 -8 36 C-3.36786507 36.55512815 -0.01827873 36.6364242 4 34.125 C6.79226272 31.15822086 7.13818567 29.59388574 7.125 25.625 C7.12757812 24.85414063 7.13015625 24.08328125 7.1328125 23.2890625 C7.01184363 20.03722659 7.01184363 20.03722659 6 17 C4.02 16.34 2.04 15.68 0 15 C0 10.05 0 5.1 0 0 Z " fill="#EFF2F4" transform="translate(114,122)"/>
<path d="M0 0 C5.1350657 4.22216513 9.79697097 10.32068259 11 17 C11.78123302 26.67527044 10.53896962 33.23909166 4.3125 40.75 C-2.13167276 47.46074826 -6.98862575 49.38820645 -16.375 49.625 C-23.85254963 49.57408283 -29.33276353 48.1739567 -35 43 C-42.22546245 35.36554911 -43.49300358 27.97856114 -43.30078125 17.62890625 C-42.69683783 10.34236805 -39.94929675 6.66230207 -34.75 1.6875 C-24.15060316 -7.08500893 -11.56292417 -7.72283865 0 0 Z " fill="#F2F3F4" transform="translate(144,62)"/>
<path d="M0 0 C3.375 -0.1875 3.375 -0.1875 7 0 C9 3 9 3 8.8125 5.5625 C8 8 8 8 5 10 C2.03923709 9.64111965 1.15341979 9.15341979 -1 7 C-0.625 3.375 -0.625 3.375 0 0 Z " fill="#E8EFF4" transform="translate(107,143)"/>
</svg>
